{"glyphs":{":":{"x_min":0,"x_max":194,"ha":194,"o":"m 124 581 q 143 563 151 551 q 163 533 163 514 q 163 503 158 492 q 153 480 133 472 q 103 460 98 457 q 97 456 90 448 q 84 439 77 440 q 54 442 36 460 q 19 479 21 503 q 21 519 33 539 q 38 548 70 592 q 74 598 85 590 q 96 583 98 583 q 110 584 115 584 q 121 584 124 581 z m 26 204 q 31 209 46 237 q 57 257 68 252 q 82 246 96 246 q 116 246 120 243 q 138 227 149 208 q 160 190 160 174 q 160 160 144 148 q 127 135 103 127 q 95 124 86 114 q 78 104 72 103 q 54 100 36 120 q 17 139 11 163 q 7 185 26 204 z"},"$":{"x_min":0,"x_max":273,"ha":273,"o":"m 95 159 l 93 269 q 79 269 64 278 q 45 291 41 310 q 47 308 57 308 q 74 308 89 316 q 104 325 124 341 q 133 349 133 355 q 133 365 81 389 q 29 413 21 441 q 18 452 18 463 q 18 494 42 520 q 65 546 99 554 l 99 666 q 111 687 137 687 q 156 687 170 670 l 168 559 q 194 557 211 542 q 228 528 228 505 q 228 494 201 494 q 193 494 175 495 q 157 496 156 496 q 127 496 115 490 q 103 485 96 476 q 90 466 90 457 q 90 435 154 402 q 219 368 219 344 q 219 336 215 329 q 198 297 165 283 l 166 153 q 152 142 135 142 q 128 142 124 143 q 109 143 95 159 z"},"?":{"x_min":0,"x_max":414,"ha":414,"o":"m 367 599 q 341 520 302 451 q 193 259 184 236 l 174 211 l 114 250 q 102 258 98 262 q 91 269 91 279 q 91 286 94 292 q 97 298 101 304 q 124 359 169 437 q 203 495 238 556 q 272 616 279 648 q 282 657 268 657 q 240 657 150 615 q 59 573 58 569 l 17 641 q 19 656 97 704 q 186 759 242 759 q 258 759 269 755 q 301 744 333 708 q 371 665 371 623 q 371 610 367 599 z m 57 46 q 52 72 78 122 q 103 171 135 171 q 142 171 152 168 q 161 166 198 131 q 241 91 244 68 q 247 46 217 17 q 187 -12 163 -12 q 133 -12 95 13 q 57 38 57 46 z"},"'":{"x_min":0,"x_max":190,"ha":190,"o":"m 47 454 l 91 650 q 95 670 97 675 q 103 687 116 688 q 132 691 140 674 q 149 658 146 640 l 113 447 q 108 418 83 415 q 68 415 56 427 q 44 439 47 454 z"},"a":{"x_min":0,"x_max":334,"ha":334,"o":"m 185 363 q 171 369 135 308 q 118 279 102 248 l 84 214 q 82 210 72 210 l 66 214 l 39 237 l 33 244 q 32 249 34 255 q 34 259 35 263 q 39 271 40 276 q 54 311 86 369 q 102 397 118 425 q 128 449 156 449 q 169 449 181 443 l 223 418 q 226 417 238 412 q 251 407 256 401 q 270 386 276 365 q 281 344 281 315 q 281 297 277 248 q 273 198 273 182 l 272 -10 q 260 -20 250 -20 q 240 -20 231 -14 q 222 -7 216 -3 q 215 -2 209 4 q 203 10 198 11 q 190 12 162 2 q 133 -7 118 -7 q 103 -7 92 0 q 64 18 51 35 q 34 57 34 86 q 34 122 57 148 q 75 169 114 190 q 154 212 198 212 l 198 319 q 198 330 198 336 q 198 346 196 353 q 193 360 185 363 z m 94 77 q 98 72 101 70 q 111 63 123 63 q 137 63 146 64 q 156 66 166 71 q 177 76 181 77 q 195 82 195 92 l 196 129 q 196 138 191 141 q 188 143 181 143 q 169 143 148 132 q 139 127 125 119 q 104 104 99 98 q 94 92 94 77 z"},"L":{"x_min":0,"x_max":404,"ha":404,"o":"m 80 684 q 80 696 94 696 q 101 696 115 692 q 129 687 141 683 q 166 674 169 672 q 183 664 183 650 l 184 128 l 298 130 q 312 130 320 127 q 328 124 354 106 q 377 87 377 46 l 128 -1 q 117 -3 108 2 q 100 7 89 19 q 78 31 77 33 q 72 39 72 52 z"},"3":{"x_min":0,"x_max":410,"ha":410,"o":"m 60 -23 l 6 64 l 66 74 q 134 86 201 144 q 263 198 263 230 q 263 249 228 264 q 193 279 151 279 q 124 279 102 272 q 81 266 66 250 l 29 277 l 29 364 l 56 377 q 124 407 193 471 q 262 535 262 567 q 262 574 257 579 q 245 591 217 591 q 176 591 113 566 q 62 546 54 538 l 12 633 q 23 645 77 668 q 144 696 193 696 q 207 696 221 693 q 268 682 298 655 q 321 635 346 592 q 352 582 354 572 q 355 563 355 554 q 355 517 328 474 q 301 431 261 397 l 223 366 q 271 366 322 310 q 374 253 374 188 q 374 150 356 122 q 339 93 306 64 q 264 27 213 4 q 150 -25 90 -25 q 82 -25 74 -24 q 65 -23 60 -23 z"},";":{"x_min":0,"x_max":314,"ha":314,"o":"m 247 579 q 276 553 278 550 q 292 534 292 514 q 292 491 266 480 q 239 468 214 457 q 211 455 207 451 q 199 443 193 443 q 170 446 149 466 q 128 486 128 512 q 128 527 141 544 q 160 568 180 592 q 185 599 195 593 q 213 583 214 583 q 228 584 234 584 q 242 584 247 579 z m 35 72 l 88 224 q 106 276 124 293 q 143 310 168 310 q 199 310 221 292 l 117 61 q 113 51 104 42 q 96 34 88 34 q 84 34 79 39 q 68 53 45 60 q 37 62 35 72 z"},"J":{"x_min":0,"x_max":360,"ha":360,"o":"m 198 344 l 197 634 q 197 655 200 670 q 204 685 215 685 q 257 685 267 683 q 298 677 298 654 l 298 337 q 298 327 298 315 q 298 303 299 290 q 299 168 281 103 q 251 -6 172 -6 q 142 -6 122 -2 q 101 3 81 17 q 53 36 37 73 q 21 110 21 144 q 21 169 30 175 q 38 181 48 181 q 64 181 84 170 q 104 158 116 141 q 120 136 122 126 q 124 115 124 107 q 123 86 123 77 q 123 50 141 50 q 183 45 194 198 q 198 254 198 344 z"},"V":{"x_min":0,"x_max":443,"ha":443,"o":"m 16 652 q 13 668 30 678 q 47 687 69 687 q 87 687 99 674 q 111 661 114 641 l 195 228 q 225 378 239 433 q 257 495 274 559 q 288 611 305 667 q 316 705 338 774 q 342 775 351 775 q 392 775 408 739 q 413 728 413 715 q 413 703 408 683 l 234 -5 l 147 20 z"},"7":{"x_min":0,"x_max":430,"ha":430,"o":"m 192 -3 l 148 12 q 138 15 134 22 q 130 28 121 54 q 117 67 117 81 q 117 88 119 98 q 121 108 124 120 l 271 561 l 51 559 q 43 569 37 581 q 31 593 29 609 q 27 625 27 630 q 27 644 31 657 l 335 665 l 396 612 z"},"S":{"x_min":0,"x_max":443,"ha":443,"o":"m 259 133 q 271 148 271 169 q 271 207 231 262 q 191 316 122 378 q 94 403 80 440 q 66 476 66 519 q 66 597 109 658 q 156 725 236 737 q 253 739 273 725 q 291 710 310 695 q 334 679 359 663 q 382 646 394 622 q 407 597 407 557 q 407 520 396 494 q 386 468 370 472 q 346 478 337 481 q 312 489 292 508 q 273 526 269 572 q 265 617 256 629 q 247 641 220 617 q 164 567 164 511 q 164 501 165 497 q 176 446 236 390 q 340 293 341 292 q 396 229 396 162 q 396 99 356 55 q 315 11 251 -1 q 239 -3 232 -3 q 167 -3 95 59 q 23 121 23 168 q 23 186 23 204 q 25 217 36 221 q 52 228 107 168 q 167 103 204 103 q 219 103 232 110 q 245 116 259 133 z"},"Z":{"x_min":0,"x_max":455,"ha":455,"o":"m 74 567 l 39 660 l 354 687 l 416 642 l 166 120 l 302 120 q 310 120 318 120 q 327 120 335 121 q 349 121 360 118 q 372 115 383 106 q 410 82 410 48 q 410 40 410 32 q 407 24 406 21 l 120 9 q 109 9 89 3 q 69 -3 60 -3 q 50 -3 41 2 q 25 12 19 19 q 7 31 12 42 l 265 571 z"},"x":{"x_min":0,"x_max":343,"ha":343,"o":"m 30 14 l 101 195 l 21 379 q 24 407 52 415 q 66 419 74 419 q 92 419 99 406 l 156 294 q 161 303 166 310 q 177 324 190 356 q 207 399 214 412 q 228 438 250 451 q 256 454 277 440 l 308 414 l 212 201 l 212 192 l 303 24 q 303 8 294 -2 q 285 -13 270 -13 q 249 -13 238 3 l 161 99 l 97 -48 q 94 -56 93 -60 q 89 -73 80 -75 q 68 -80 66 -75 l 29 -38 q 22 -30 22 -14 q 22 -4 30 14 z"},")":{"x_min":0,"x_max":643,"ha":643,"o":"m 544 428 l 544 248 q 495 223 450 196 q 404 169 354 137 q 299 101 256 70 q 221 44 163 -2 l 132 46 q 182 84 216 112 q 249 141 296 186 q 344 232 372 262 q 401 292 447 343 q 373 424 298 490 q 253 530 211 564 q 164 602 120 633 l 157 679 q 213 638 256 608 q 311 570 358 540 q 451 480 544 428 z"},"&":{"x_min":0,"x_max":583,"ha":583,"o":"m 461 124 l 526 29 q 529 23 529 17 q 529 0 513 -12 q 505 -19 492 -19 q 476 -19 459 -7 l 372 65 l 240 4 q 195 -17 148 -17 q 111 -17 82 -4 q 54 10 32 42 q 11 73 11 114 q 11 174 58 232 l 141 335 l 101 387 q 83 411 76 434 q 68 457 68 486 q 68 501 68 516 q 71 531 72 538 q 80 588 123 652 q 175 728 227 728 q 244 728 259 720 l 310 693 q 367 664 395 633 q 430 594 430 542 q 430 500 420 470 q 411 439 385 410 l 301 319 l 395 201 l 483 226 q 497 230 504 231 q 520 235 525 235 q 538 235 537 224 q 534 197 523 182 q 519 177 494 154 z m 304 476 q 330 502 330 539 q 330 566 314 588 q 299 611 267 623 q 258 626 250 626 q 222 626 203 597 q 184 568 184 530 q 184 483 193 453 q 202 423 232 401 z m 212 253 l 169 204 q 124 154 124 99 q 124 80 131 73 q 138 66 149 66 q 161 66 175 72 q 180 74 201 86 l 298 141 z"},"v":{"x_min":0,"x_max":310,"ha":310,"o":"m 152 -21 q 124 -12 97 -3 q 74 9 70 24 l 16 427 q 15 436 25 436 q 34 436 50 430 q 62 424 66 423 q 73 420 80 418 q 94 412 97 399 l 140 118 q 154 186 164 229 q 170 255 194 341 q 213 409 237 480 q 273 480 286 452 q 292 440 292 427 q 292 423 290 411 l 195 47 l 178 -3 q 172 -10 166 -17 q 159 -24 152 -21 z"},"O":{"x_min":0,"x_max":540,"ha":540,"o":"m 494 319 q 494 209 426 105 q 359 1 282 1 q 271 1 265 2 q 175 18 115 92 q 45 179 45 319 q 45 478 110 595 q 158 682 224 721 q 227 723 234 723 q 244 723 264 712 q 285 702 292 701 q 326 693 361 686 q 410 670 428 639 q 471 563 482 494 q 494 425 494 319 z m 157 356 q 157 238 190 155 q 218 84 246 84 q 286 84 324 156 q 361 229 376 335 q 378 346 379 360 q 380 375 380 390 q 380 476 352 550 q 325 625 288 631 q 253 636 205 539 q 157 442 157 356 z"},"(":{"x_min":0,"x_max":645,"ha":645,"o":"m 117 248 l 117 428 q 185 466 211 482 q 223 489 303 540 q 398 600 503 679 l 541 633 q 487 595 450 565 q 419 540 363 490 q 315 448 284 418 q 254 388 214 343 q 253 298 286 264 q 319 230 364 188 q 409 145 444 114 q 480 83 528 46 l 497 -2 q 441 43 404 70 q 361 102 308 136 q 254 171 211 196 q 168 221 117 248 z"},"C":{"x_min":0,"x_max":472,"ha":472,"o":"m 260 710 q 268 714 281 709 q 302 699 323 689 q 347 684 362 675 q 376 666 384 648 q 391 631 398 616 q 404 602 414 546 q 417 531 417 519 q 417 486 400 468 q 384 451 358 451 q 350 451 346 452 q 326 456 315 469 q 304 482 296 505 q 293 512 292 521 q 291 530 291 531 q 291 548 292 566 q 289 584 279 584 q 256 584 211 500 q 166 417 155 358 q 149 326 145 292 q 141 257 141 225 q 141 158 159 124 q 181 81 232 81 q 254 81 296 117 q 338 153 358 184 q 377 216 384 230 q 392 245 399 268 l 437 237 q 437 194 432 168 q 426 143 407 109 q 379 57 354 33 q 320 1 273 -3 q 268 -4 258 -4 q 217 -4 179 22 q 154 40 112 84 q 75 123 60 165 q 44 207 44 258 q 44 304 56 357 q 65 398 86 463 q 113 545 161 612 q 209 680 260 710 z"},"W":{"x_min":0,"x_max":621,"ha":621,"o":"m 530 447 q 497 295 485 235 q 466 140 446 21 l 338 62 l 274 410 l 201 0 l 86 37 l 27 681 q 27 692 45 692 q 59 691 65 691 q 84 691 98 684 q 111 678 112 662 l 149 170 l 222 646 l 338 641 l 389 184 q 403 325 437 492 q 453 574 465 620 q 474 656 501 747 q 504 751 508 756 q 517 765 528 763 q 557 758 574 744 q 592 730 592 706 q 570 617 560 577 q 544 512 530 447 z"},"A":{"x_min":0,"x_max":489,"ha":489,"o":"m 30 -15 l 221 713 l 366 684 l 463 23 q 465 11 448 4 q 439 0 428 -2 q 417 -3 411 -3 q 383 -3 377 17 l 328 186 l 174 170 l 116 -41 q 112 -56 91 -56 q 85 -56 76 -54 q 67 -52 62 -50 q 42 -41 35 -33 q 28 -25 30 -15 z m 199 277 l 319 277 l 277 527 z"},"f":{"x_min":0,"x_max":248,"ha":248,"o":"m 211 500 q 191 504 188 534 q 184 565 182 587 q 181 609 176 609 q 167 609 153 555 q 145 523 145 510 l 144 377 l 214 377 l 221 310 l 138 307 l 138 7 q 138 -2 128 -6 q 117 -9 106 -7 q 68 4 62 10 q 57 15 57 45 l 58 301 l 22 306 l 19 361 l 62 367 l 65 503 q 65 572 90 632 q 116 693 156 693 q 184 693 213 679 q 252 660 252 631 l 246 546 q 244 523 239 513 q 231 496 211 500 z"},"Q":{"x_min":0,"x_max":520,"ha":520,"o":"m 238 -10 q 160 -3 113 69 q 48 170 48 390 q 48 486 109 585 q 161 670 219 703 q 224 706 232 706 q 245 706 263 700 q 281 695 297 690 q 336 683 361 672 q 405 654 423 623 q 452 570 464 527 q 477 484 477 426 q 477 331 464 253 q 444 135 394 50 l 503 -88 q 495 -98 492 -101 q 486 -107 470 -107 q 464 -107 452 -108 q 440 -109 435 -109 q 419 -109 406 -103 l 319 0 q 299 -6 280 -8 q 260 -10 238 -10 z m 293 633 q 251 640 207 566 q 154 477 154 335 q 154 213 173 134 q 192 56 223 46 q 233 43 244 48 q 256 56 263 60 l 241 121 q 246 119 252 119 q 264 122 274 122 q 282 122 287 121 q 295 120 306 115 q 322 110 343 195 q 364 280 364 332 q 364 428 350 512 q 331 627 293 633 z"},"w":{"x_min":0,"x_max":414,"ha":414,"o":"m 170 400 l 234 388 l 243 306 q 253 237 256 224 q 259 210 263 194 q 277 259 297 334 q 308 381 316 411 q 329 459 337 488 l 400 448 q 390 395 381 352 q 372 308 362 262 q 346 189 332 130 q 318 71 297 -11 l 232 6 q 229 20 225 33 q 217 58 212 83 q 208 108 199 133 q 190 158 181 182 l 150 61 l 137 -6 l 59 10 l 17 424 q 17 431 25 431 q 30 431 38 428 q 47 424 55 421 q 79 411 86 385 l 98 298 l 113 193 l 143 324 l 157 371 z"},"-":{"x_min":0,"x_max":339,"ha":339,"o":"m 32 346 l 30 375 l 258 379 q 269 382 279 375 q 284 371 284 360 q 284 350 287 342 q 290 334 295 323 l 295 303 l 70 295 q 57 304 47 317 q 42 324 37 332 q 32 339 32 346 z"},"E":{"x_min":0,"x_max":456,"ha":456,"o":"m 69 41 l 82 693 l 139 679 l 340 692 q 369 692 390 668 q 410 644 410 617 q 411 605 378 598 q 363 595 316 590 l 176 577 l 176 410 l 325 414 q 333 414 340 414 q 348 414 356 415 q 367 415 372 414 q 379 412 388 406 q 414 386 414 354 q 414 338 409 328 l 168 301 l 169 102 l 320 114 q 342 116 366 99 q 382 86 389 81 q 402 71 402 50 q 402 39 399 28 l 139 0 q 129 0 120 3 q 107 9 98 13 q 90 17 80 24 q 69 30 69 41 z"},"s":{"x_min":0,"x_max":288,"ha":288,"o":"m 48 39 q 36 47 36 64 q 36 74 42 83 q 48 92 56 96 q 65 101 73 97 q 99 80 112 72 q 137 56 149 56 q 162 56 165 66 q 168 75 168 78 q 168 83 168 85 q 168 106 145 126 q 123 143 102 160 q 80 178 68 195 q 57 212 52 234 q 48 256 48 272 q 48 323 77 364 q 106 406 151 406 q 164 406 167 406 q 174 406 177 404 l 225 375 q 241 365 247 347 q 250 339 253 308 q 253 285 250 269 q 248 253 240 235 l 188 235 q 185 243 178 248 q 172 254 172 304 q 172 318 172 333 q 169 341 163 341 q 153 341 138 317 q 123 293 120 275 q 117 252 131 231 q 141 216 167 195 q 193 174 221 153 q 253 124 253 93 q 253 54 218 22 q 183 -10 152 -10 q 129 -10 109 -1 q 89 8 48 39 z"},"l":{"x_min":0,"x_max":196,"ha":196,"o":"m 58 57 l 67 666 q 67 678 80 684 q 92 690 107 687 q 128 683 136 673 q 143 663 143 644 l 128 10 q 128 -1 109 -1 q 102 -1 94 1 q 68 13 63 21 q 58 29 58 57 z"},"8":{"x_min":0,"x_max":447,"ha":447,"o":"m 46 526 q 46 597 95 650 q 144 703 210 703 q 267 703 326 656 q 385 610 390 552 q 390 516 378 488 q 367 461 341 426 l 302 374 l 352 310 q 388 264 393 255 q 410 226 410 192 q 410 112 351 56 q 292 0 210 0 q 133 0 76 50 q 19 100 19 174 q 19 217 41 254 q 46 263 94 325 l 133 375 l 92 417 q 69 441 58 466 q 46 492 46 526 z m 288 186 q 288 228 272 258 q 255 289 220 306 l 141 216 q 126 198 126 173 q 126 139 149 109 q 172 79 203 79 q 242 79 265 111 q 288 143 288 186 z m 230 632 q 204 629 176 596 q 148 563 148 526 q 148 498 168 467 q 188 436 206 436 q 209 436 214 439 q 236 453 256 482 q 276 510 284 534 q 286 542 286 551 q 286 580 272 605 q 255 635 230 632 z"},"e":{"x_min":0,"x_max":326,"ha":326,"o":"m 281 329 l 287 209 l 145 186 q 127 182 121 177 q 108 167 108 149 l 110 103 q 110 88 120 76 q 129 63 142 64 q 170 68 212 108 q 254 148 250 157 q 254 159 263 159 q 280 159 288 148 q 296 137 296 125 q 296 120 293 112 q 287 89 276 72 q 271 64 248 37 q 229 15 210 5 q 190 -5 163 -5 q 145 -5 134 -2 q 122 2 110 12 l 58 59 q 55 61 52 68 q 49 75 47 79 q 40 97 40 117 l 40 195 q 40 271 74 352 q 107 433 145 433 q 151 433 154 432 q 173 426 202 423 q 232 420 248 402 q 265 384 273 368 q 281 351 281 329 z m 208 330 q 208 347 202 360 q 195 373 181 377 q 166 380 153 345 q 144 320 141 310 q 133 289 129 274 q 125 259 125 242 l 208 261 z"},"b":{"x_min":0,"x_max":360,"ha":360,"o":"m 71 686 q 83 692 93 692 q 108 690 123 688 q 138 685 144 678 q 149 670 149 653 l 140 335 l 173 391 q 182 407 192 416 q 202 424 216 424 q 231 424 253 411 q 301 381 312 359 q 323 337 323 296 l 319 201 q 319 115 299 61 q 273 -10 213 -20 q 192 -23 165 -11 q 132 4 115 4 q 112 4 102 2 q 91 -1 86 2 q 69 14 65 18 q 61 22 60 34 l 62 346 q 62 423 64 476 q 71 662 71 686 z m 218 349 q 184 301 177 289 q 148 240 148 184 l 144 114 q 144 108 143 94 q 142 81 142 75 q 142 60 147 52 q 152 43 166 41 q 204 37 223 81 q 237 114 237 168 l 244 275 q 244 298 238 326 q 233 354 225 354 q 222 354 218 349 z"},"%":{"x_min":0,"x_max":542,"ha":542,"o":"m 370 687 l 430 674 l 161 21 q 158 5 144 -3 q 130 -11 114 -8 q 99 -5 90 8 q 81 22 83 37 l 294 554 l 211 526 q 211 486 206 461 q 200 436 182 406 q 154 361 139 345 q 112 317 80 317 q 76 317 64 319 q 35 325 20 351 q 5 377 5 412 q 5 451 20 487 q 36 523 60 558 q 84 594 103 612 q 109 617 114 606 q 127 575 134 575 q 158 575 173 566 q 188 557 199 557 q 253 574 300 610 q 341 642 370 687 z m 368 62 q 325 68 299 96 q 273 124 273 166 q 273 205 299 244 q 325 284 332 293 q 356 323 385 334 l 430 317 q 414 311 407 296 q 404 289 409 286 q 414 283 425 283 q 438 283 452 284 q 465 285 478 286 q 492 286 492 281 q 492 221 486 202 q 479 182 452 141 q 435 113 418 85 q 397 58 368 62 z m 126 519 q 107 524 93 506 q 86 498 72 468 q 64 450 58 431 q 53 412 53 396 q 53 366 77 366 q 94 366 104 378 q 111 386 126 432 q 135 459 137 464 q 143 483 143 496 q 143 515 126 519 z m 414 211 l 378 257 q 349 228 343 186 q 341 173 340 163 q 339 153 339 137 q 339 117 344 108 q 349 98 361 103 q 384 112 400 146 q 416 179 416 202 q 416 207 414 211 z"},"m":{"x_min":0,"x_max":538,"ha":538,"o":"m 464 -10 q 452 -13 443 -13 q 436 -13 432 -12 q 412 -12 396 -3 q 381 6 381 24 l 385 196 q 385 214 389 247 q 398 321 398 332 q 398 349 394 356 q 391 363 382 360 q 357 352 337 298 q 317 244 317 190 l 305 15 q 304 3 286 3 q 277 3 266 6 q 256 9 251 10 q 231 16 220 31 l 229 266 q 229 282 229 290 q 229 315 226 328 q 224 341 214 341 q 198 340 176 295 q 154 250 154 224 l 142 2 q 139 -13 139 -14 q 136 -23 129 -23 q 104 -23 86 -15 q 61 -4 61 16 l 54 410 q 57 418 63 424 q 69 431 76 430 q 88 428 104 424 q 120 421 120 409 l 124 337 l 156 380 q 169 399 170 400 q 182 413 217 413 q 237 413 261 394 q 275 382 289 370 q 297 366 308 380 q 324 401 332 405 q 339 409 346 416 q 352 422 401 426 q 447 426 471 393 q 487 370 487 343 q 487 336 487 333 z"},",":{"x_min":0,"x_max":314,"ha":314,"o":"m 35 72 l 88 224 q 106 276 124 293 q 143 310 168 310 q 199 310 221 292 l 117 61 q 113 51 104 42 q 96 34 88 34 q 84 34 79 39 q 68 53 45 60 q 37 62 35 72 z"},"n":{"x_min":0,"x_max":370,"ha":370,"o":"m 56 399 q 61 412 66 416 q 71 420 77 419 q 91 418 103 414 q 115 409 121 399 l 131 384 l 146 384 q 152 410 174 430 q 196 450 217 450 q 257 450 286 426 q 316 401 316 363 l 306 -1 q 306 -12 293 -12 q 286 -12 272 -8 q 258 -3 252 -1 q 233 6 221 21 l 231 256 q 231 316 225 346 q 218 355 212 364 q 190 349 178 328 q 167 308 163 280 q 149 256 146 225 q 144 194 143 164 q 139 121 139 79 q 139 57 139 33 q 139 9 140 -16 q 139 -21 138 -27 q 134 -39 126 -39 q 102 -39 82 -28 q 57 -14 57 8 z"},"h":{"x_min":0,"x_max":380,"ha":380,"o":"m 322 309 l 322 25 q 322 5 316 -9 q 310 -23 296 -28 q 291 -30 280 -30 q 259 -30 242 -20 q 226 -10 226 8 l 236 264 q 236 273 236 282 q 236 291 237 300 q 237 314 234 326 q 231 339 222 339 q 204 339 177 270 q 150 202 150 157 l 137 0 q 128 -4 116 -4 q 108 -4 93 1 q 67 13 62 21 q 57 29 57 57 l 63 690 q 92 690 113 684 q 134 678 145 675 l 144 331 l 179 382 q 185 391 192 400 q 198 410 208 409 q 242 404 276 383 q 310 362 314 350 q 322 330 322 309 z"},"z":{"x_min":0,"x_max":302,"ha":302,"o":"m 169 341 q 163 343 159 343 q 148 343 137 342 q 126 340 113 339 q 100 338 86 338 q 71 336 60 327 l 46 314 q 39 323 32 336 q 26 349 24 360 q 23 371 23 383 q 23 395 24 402 l 183 425 q 188 425 198 427 q 208 429 214 428 q 226 426 229 421 l 256 391 q 264 380 264 368 q 264 355 257 344 l 118 110 q 115 104 114 101 q 112 96 112 94 q 112 82 135 82 q 145 82 157 83 q 169 84 181 85 q 188 84 191 84 q 202 84 207 84 q 221 84 232 78 q 242 73 248 61 q 255 49 260 41 l 270 25 l 271 10 l 78 -6 q 64 -7 58 -7 q 48 -7 42 -2 q 40 0 33 14 l 18 41 q 12 51 14 68 q 15 73 20 81 q 25 89 26 92 l 158 303 q 165 312 167 316 q 171 323 171 330 q 171 337 169 341 z"},"B":{"x_min":0,"x_max":508,"ha":508,"o":"m 76 672 l 172 697 l 282 697 q 344 697 395 654 q 442 614 458 559 q 464 538 464 517 q 464 445 396 396 l 338 353 l 394 317 q 429 295 452 254 q 475 214 472 188 q 461 111 353 57 q 264 13 190 13 q 173 13 166 18 l 137 -7 l 79 34 z m 175 395 q 178 392 186 392 q 230 392 292 439 q 367 495 367 561 q 367 568 367 572 q 364 598 340 610 q 316 622 280 622 q 248 622 216 614 q 185 606 173 596 z m 176 125 q 180 118 197 118 q 242 118 305 154 q 375 194 370 234 q 367 265 333 282 q 299 298 264 298 l 176 298 z"},"K":{"x_min":0,"x_max":492,"ha":492,"o":"m 125 689 q 146 685 156 677 q 165 669 177 650 l 181 397 l 380 722 l 456 673 l 264 339 l 450 75 q 438 31 398 14 q 329 84 282 138 q 236 192 177 269 l 178 21 q 178 9 165 2 q 152 -5 139 -1 q 118 5 98 12 q 76 22 76 53 l 78 688 q 90 692 102 692 q 111 692 125 689 z"},"R":{"x_min":0,"x_max":526,"ha":526,"o":"m 491 508 q 485 453 445 405 q 413 367 348 323 l 305 294 l 467 50 q 469 40 469 35 q 469 10 447 -4 q 436 -10 426 -10 q 411 -10 398 -2 q 386 5 376 19 l 174 292 l 169 12 q 169 -3 145 -3 q 131 -3 123 1 q 104 7 90 12 q 76 18 76 43 l 78 639 q 78 658 84 672 q 89 685 105 692 q 113 695 122 695 q 144 695 157 679 q 183 692 204 696 q 225 699 262 699 l 314 699 q 378 699 435 643 q 492 587 492 521 q 491 512 491 508 z m 176 354 q 229 367 257 388 q 285 410 303 424 q 342 455 364 493 q 387 531 387 571 q 387 595 363 608 q 339 620 304 620 q 263 620 226 607 q 189 594 182 575 z"},"T":{"x_min":0,"x_max":480,"ha":480,"o":"m 182 47 l 182 619 l 112 621 q 105 621 94 618 q 83 615 77 615 q 71 615 63 620 q 55 624 49 642 q 43 659 41 662 q 40 663 27 677 q 19 686 25 689 q 46 701 82 711 q 117 721 151 721 l 408 741 q 425 741 437 730 q 449 719 452 698 q 454 677 454 665 q 454 646 448 642 q 441 638 416 635 l 288 621 l 288 17 q 288 7 278 0 q 268 -7 258 -3 q 219 9 205 14 q 182 23 182 47 z"},"P":{"x_min":0,"x_max":428,"ha":428,"o":"m 351 369 q 318 327 261 292 q 211 261 170 261 l 171 2 q 171 -8 157 -8 q 148 -8 142 -5 q 136 -3 106 7 q 75 17 75 45 l 73 634 q 73 644 73 649 q 73 663 76 672 q 78 680 88 687 q 99 694 109 694 l 164 694 q 219 694 260 675 q 294 659 347 616 q 373 595 386 564 q 399 532 399 499 q 399 425 351 369 z m 168 646 l 166 339 q 223 352 256 398 q 288 443 288 505 q 288 577 255 608 q 231 631 168 646 z"},"t":{"x_min":0,"x_max":241,"ha":241,"o":"m 73 331 l 57 339 l 41 339 l 26 358 l 24 406 l 75 417 l 80 607 q 96 611 111 611 q 120 611 132 609 q 145 607 166 597 l 164 427 l 208 427 l 222 401 l 221 353 l 154 346 l 154 -2 q 143 -5 136 -5 q 129 -5 120 -2 q 110 0 101 2 q 66 12 66 41 z"},"M":{"x_min":0,"x_max":628,"ha":628,"o":"m 175 498 l 170 1 q 170 -15 150 -15 q 140 -15 131 -12 q 122 -9 109 -4 q 96 0 87 3 q 71 10 71 26 l 96 668 q 96 685 102 692 q 107 698 124 698 q 131 698 142 696 q 152 695 171 691 q 216 680 222 676 q 228 672 232 652 l 297 313 l 414 722 q 420 744 442 744 q 451 744 463 741 q 475 738 495 731 q 515 724 534 718 q 553 709 553 692 l 555 2 q 555 -6 548 -10 q 540 -15 529 -15 q 521 -15 513 -12 q 475 0 461 5 q 438 14 438 38 l 447 507 l 334 125 q 329 110 320 110 q 310 110 287 121 q 274 126 262 132 q 251 138 249 151 z"},"g":{"x_min":0,"x_max":339,"ha":339,"o":"m 79 -170 q 55 -155 55 -127 q 55 -115 62 -106 q 68 -96 77 -96 q 88 -96 115 -120 q 132 -135 140 -139 q 162 -153 179 -153 q 200 -153 210 -131 q 219 -109 219 -77 l 216 76 q 201 53 191 42 q 160 6 137 1 q 133 0 125 0 q 89 0 64 38 q 39 77 39 124 q 39 134 40 139 q 38 142 42 177 q 47 212 54 270 q 62 329 84 372 q 115 430 169 430 q 181 429 196 418 q 210 408 216 406 l 297 373 q 290 304 287 247 q 284 190 284 121 q 284 89 287 27 q 290 -35 290 -61 q 290 -107 284 -141 q 277 -175 261 -196 q 245 -216 227 -226 q 209 -237 189 -237 q 170 -237 156 -227 z m 187 352 q 167 364 147 309 q 113 217 113 112 q 113 87 116 76 q 120 66 129 73 q 165 103 182 128 q 198 152 198 189 l 205 331 q 205 338 200 343 q 196 347 187 352 z"},"j":{"x_min":0,"x_max":198,"ha":198,"o":"m 82 493 q 60 493 40 506 l 44 571 q 39 592 59 620 q 79 647 91 639 q 128 617 138 612 q 153 603 153 584 l 153 528 q 139 517 134 508 q 118 478 109 478 q 105 478 96 486 q 88 493 82 493 z m 6 -163 q 14 -176 28 -176 q 31 -176 40 -173 q 49 -170 49 -152 q 48 -135 48 -127 l 57 432 l 95 430 q 114 430 125 426 q 136 423 142 410 q 145 401 142 388 q 139 376 139 373 l 135 -167 q 135 -203 123 -227 q 108 -257 79 -257 q 41 -257 18 -227 q 3 -206 3 -183 q 3 -174 6 -163 z"},"i":{"x_min":0,"x_max":210,"ha":210,"o":"m 62 525 l 62 590 q 62 609 74 624 q 85 638 103 638 q 120 638 134 625 q 148 612 148 594 l 148 504 q 148 490 135 484 q 122 477 104 477 q 86 477 74 491 q 62 505 62 525 z m 58 42 l 58 408 q 58 432 86 432 q 120 432 134 424 q 149 415 149 400 l 140 5 q 140 -7 122 -7 q 112 -7 104 -5 q 97 -3 93 -2 q 58 9 58 42 z"},"y":{"x_min":0,"x_max":323,"ha":323,"o":"m 154 157 l 221 474 l 239 488 l 308 452 l 136 -278 q 132 -279 123 -279 q 103 -279 83 -264 q 63 -248 60 -223 l 83 -102 l 106 1 q 81 27 73 39 q 60 58 47 128 q 41 160 36 192 q 28 243 28 297 l 21 437 q 26 438 38 438 q 75 438 86 424 q 98 410 100 364 q 103 319 106 299 q 116 226 127 153 q 135 140 143 127 q 151 142 154 157 z"},".":{"x_min":0,"x_max":219,"ha":219,"o":"m 141 146 q 159 130 170 114 q 180 98 180 79 q 180 71 174 58 q 169 44 149 37 q 119 26 114 22 q 112 21 106 13 q 100 5 94 6 q 71 8 53 26 q 35 45 37 69 q 37 86 49 105 q 71 134 87 157 q 89 161 96 157 q 104 153 114 149 q 125 150 129 150 q 136 150 141 146 z"},"p":{"x_min":0,"x_max":336,"ha":336,"o":"m 57 250 l 25 287 l 53 330 l 52 458 q 52 470 54 477 q 57 484 66 486 q 80 490 102 480 q 124 471 124 454 l 126 421 q 152 430 175 430 q 213 430 252 402 q 280 381 292 357 q 303 333 303 290 q 303 204 268 123 q 237 50 188 7 q 183 3 174 3 q 168 3 160 4 q 151 6 140 8 l 137 -210 q 128 -223 116 -226 q 105 -229 99 -229 q 83 -229 70 -220 q 58 -212 58 -199 z m 148 76 q 162 73 201 194 q 224 266 224 309 q 224 339 218 352 q 211 366 202 374 q 193 382 185 382 q 181 382 176 379 l 130 339 l 135 81 z"},"X":{"x_min":0,"x_max":459,"ha":459,"o":"m 422 687 l 281 329 l 414 17 q 393 3 370 3 q 361 3 350 5 q 339 7 325 18 q 311 29 294 62 l 232 178 l 132 -62 q 117 -62 107 -59 q 104 -58 86 -50 q 67 -43 54 -34 q 41 -25 29 -12 l 151 329 l 33 633 q 30 642 26 652 q 23 663 23 669 q 23 680 30 684 q 38 689 45 689 q 53 689 60 686 q 68 682 74 679 q 100 675 120 658 q 124 655 132 647 q 140 639 145 627 l 211 472 l 331 757 q 359 757 385 741 q 415 721 422 687 z"},"Y":{"x_min":0,"x_max":477,"ha":477,"o":"m 283 28 l 283 1 q 270 -3 267 -4 q 258 -6 250 -4 q 228 0 208 5 q 187 10 170 24 l 170 301 l 16 695 q 25 697 41 697 q 56 697 76 691 q 108 680 126 649 q 144 606 154 583 l 222 434 l 367 780 q 376 781 380 781 q 397 781 419 770 q 447 754 459 727 q 411 625 376 531 q 332 426 315 380 q 285 300 285 222 z"},"c":{"x_min":0,"x_max":316,"ha":316,"o":"m 245 425 q 259 416 268 388 q 276 361 276 326 q 276 294 267 274 q 258 253 240 253 q 230 253 220 262 q 211 270 201 284 q 195 292 193 302 q 191 313 191 325 q 191 340 191 347 q 191 354 191 362 q 190 368 185 373 q 163 326 141 280 q 109 170 109 103 q 109 51 131 51 q 138 51 151 59 q 180 78 195 97 q 199 101 238 170 q 243 178 249 187 q 259 190 267 180 l 296 143 l 286 118 q 265 61 248 37 q 223 0 189 -5 q 183 -7 178 -7 q 171 -7 169 -7 q 156 -7 144 1 l 74 48 q 66 53 62 64 q 58 75 56 82 q 41 117 41 169 q 41 217 53 268 q 62 307 71 326 q 86 365 101 405 q 122 448 154 448 q 166 448 176 444 q 186 441 201 432 q 209 428 218 428 q 240 428 245 425 z"},"!":{"x_min":0,"x_max":244,"ha":244,"o":"m 137 178 l 79 190 q 66 276 62 336 q 58 396 58 488 q 58 623 79 761 q 113 761 149 753 q 171 749 179 747 q 197 740 207 737 l 174 501 q 160 391 153 332 q 146 272 137 178 z m 54 127 q 55 128 60 128 q 69 127 86 132 q 103 138 116 138 q 146 138 164 115 q 182 92 182 61 q 182 29 160 2 q 137 -26 109 -26 q 99 -26 91 -22 q 61 -8 46 9 q 32 26 32 52 q 32 87 36 100 q 40 112 54 127 z"},"/":{"x_min":0,"x_max":335,"ha":335,"o":"m 76 -37 q 61 -41 54 -31 q 48 -21 48 0 q 48 22 50 38 q 53 54 59 81 l 192 664 q 202 713 219 750 q 242 801 266 801 q 275 801 282 794 q 290 787 292 780 q 295 773 295 760 q 295 747 294 741 l 116 0 q 106 -30 76 -37 z"},"6":{"x_min":0,"x_max":414,"ha":414,"o":"m 12 250 q 20 313 33 360 q 52 427 86 484 l 207 686 q 210 691 215 693 q 220 695 226 695 q 232 695 239 694 q 245 693 251 692 q 275 687 281 684 q 296 677 290 666 l 159 424 q 168 425 185 425 q 264 425 323 381 q 390 331 390 254 q 391 247 391 244 q 391 161 333 88 q 269 7 179 7 q 103 7 56 72 q 10 136 10 221 q 10 228 11 236 q 12 245 12 250 z m 108 227 q 107 219 106 211 q 106 203 106 191 q 106 144 119 112 q 132 80 161 80 q 205 80 239 122 q 273 163 273 229 q 273 297 258 325 q 242 353 199 357 q 157 357 133 315 q 114 282 108 227 z"},"r":{"x_min":0,"x_max":260,"ha":260,"o":"m 60 405 l 69 416 l 92 416 q 100 416 110 406 q 121 397 127 395 q 141 391 150 416 q 159 442 172 446 q 184 449 189 449 q 208 449 222 436 q 237 422 237 403 l 236 364 q 236 335 229 312 q 222 288 207 288 q 184 288 176 333 q 172 355 162 355 q 153 355 148 340 q 142 325 142 280 q 142 266 142 256 q 142 245 142 239 l 142 -5 q 131 -10 117 -10 q 108 -10 95 -7 q 82 -4 70 8 q 58 19 58 37 z"},"2":{"x_min":0,"x_max":484,"ha":484,"o":"m 414 548 q 414 465 355 346 q 306 248 228 143 l 211 121 l 327 123 q 358 123 383 116 q 408 110 418 96 q 440 66 440 48 q 440 31 425 27 q 410 23 399 23 l 83 7 l 50 124 q 83 163 117 202 q 190 301 237 388 q 301 505 301 564 q 301 577 299 585 q 297 593 290 593 q 271 593 212 545 q 174 514 111 453 q 61 404 60 402 l 4 481 q 4 489 48 538 q 99 595 150 633 q 219 684 267 684 q 295 684 314 669 q 383 618 391 608 q 414 580 414 548 z"},"9":{"x_min":0,"x_max":439,"ha":439,"o":"m 195 4 q 193 -3 186 -3 q 178 -5 170 3 l 141 41 q 136 49 137 61 q 143 70 147 76 q 165 99 174 111 q 183 123 210 166 q 225 191 238 216 q 252 242 267 277 q 244 274 225 274 q 143 274 86 328 q 38 373 26 431 q 23 446 23 463 q 23 532 61 599 q 105 676 173 697 q 180 699 188 694 q 197 690 219 690 q 307 690 362 606 q 410 532 410 437 q 410 375 399 326 q 385 265 352 212 q 318 158 285 105 q 246 49 195 4 z m 297 481 q 291 533 270 576 q 249 620 223 628 q 197 636 162 583 q 126 530 126 481 q 126 406 140 380 q 154 354 185 354 q 194 354 199 355 q 247 361 273 385 q 299 409 299 458 q 299 463 299 469 q 297 477 297 481 z"}," ":{"x_min":0,"x_max":275,"ha":275,"o":""},"I":{"x_min":0,"x_max":245,"ha":245,"o":"m 78 47 l 75 666 q 75 676 85 681 q 95 686 108 686 q 117 686 121 685 q 151 679 165 672 q 179 666 179 648 l 178 11 q 178 -3 156 -3 q 149 -3 141 -1 q 108 7 105 8 q 78 17 78 47 z"},"H":{"x_min":0,"x_max":508,"ha":508,"o":"m 325 419 l 325 726 q 325 737 334 742 q 344 746 360 746 q 366 746 372 746 q 380 744 383 744 q 429 736 429 697 l 432 31 q 432 17 422 7 q 411 -3 398 -1 q 357 7 344 13 q 323 24 323 48 l 323 321 l 180 304 l 178 23 q 178 11 168 3 q 158 -5 146 -5 q 142 -5 136 -3 q 118 5 100 13 q 75 26 75 55 l 76 674 q 76 686 86 692 q 96 697 113 697 q 120 697 130 695 q 160 689 166 685 q 181 676 181 656 l 183 406 z"},"4":{"x_min":0,"x_max":472,"ha":472,"o":"m 6 281 l 248 697 l 356 654 l 343 327 l 377 319 q 402 312 404 311 q 410 307 414 298 q 422 280 426 272 q 429 263 429 252 q 429 244 426 236 l 335 230 l 336 19 q 336 -7 318 -4 q 268 3 260 6 q 230 19 230 59 l 230 223 l 68 223 z m 132 323 l 242 321 l 259 569 z"},"D":{"x_min":0,"x_max":518,"ha":518,"o":"m 191 -14 l 76 31 l 76 688 l 104 725 q 199 725 271 696 q 343 668 398 602 q 435 557 454 504 q 472 451 472 395 q 472 330 450 268 q 429 205 388 144 q 346 82 302 47 q 259 12 191 -14 z m 181 645 l 181 91 q 266 144 308 228 q 347 306 347 408 q 347 469 329 525 q 303 605 251 633 q 238 640 228 642 q 217 645 200 645 q 188 645 181 645 z"},"0":{"x_min":0,"x_max":517,"ha":517,"o":"m 476 310 q 476 202 408 98 q 339 -7 263 -7 q 252 -7 246 -6 q 156 10 97 84 q 27 171 27 311 q 27 470 92 587 q 141 675 206 713 q 216 719 246 704 q 266 694 274 692 q 341 679 343 678 q 392 662 410 631 q 453 555 464 486 q 476 417 476 310 z m 139 348 q 139 230 172 147 q 200 76 228 76 q 267 76 304 149 q 342 222 358 327 q 361 353 361 379 q 361 465 334 541 q 306 617 270 623 q 235 628 187 531 q 139 434 139 348 z"},"F":{"x_min":0,"x_max":426,"ha":426,"o":"m 75 39 l 75 681 l 300 685 q 334 685 368 658 q 402 630 402 612 q 402 599 389 592 q 376 586 342 586 l 172 584 l 168 406 l 298 402 q 331 402 360 381 q 389 360 389 339 q 389 325 367 316 q 345 306 321 306 l 174 302 l 168 19 q 168 8 160 0 q 152 -8 141 -8 q 137 -8 133 -6 q 94 12 84 17 q 75 22 75 39 z"},"k":{"x_min":0,"x_max":346,"ha":346,"o":"m 311 20 l 270 -6 q 248 21 231 44 q 211 71 195 97 q 189 107 177 128 q 165 150 158 164 l 132 154 l 133 -1 q 125 -4 115 -4 q 96 -2 82 0 q 67 1 62 6 q 56 12 56 28 q 57 45 57 57 l 64 670 q 64 682 77 686 q 90 690 105 688 q 147 679 147 642 l 136 248 l 271 459 l 291 445 q 296 441 304 434 q 313 426 322 417 l 216 209 l 260 130 l 310 45 z"},"u":{"x_min":0,"x_max":340,"ha":340,"o":"m 139 -4 q 124 -4 114 2 l 80 23 q 71 28 66 35 q 60 42 52 57 q 39 82 39 108 l 53 392 q 53 402 66 402 q 72 402 82 400 q 92 397 102 394 q 113 392 128 380 l 114 161 q 114 106 120 80 q 127 71 134 63 q 168 87 178 105 q 188 123 188 143 l 193 421 l 219 424 q 256 424 283 398 l 282 -9 q 273 -13 261 -13 q 258 -13 248 -10 q 237 -8 228 -3 q 220 2 219 12 l 213 54 l 170 8 q 158 -4 139 -4 z"},"U":{"x_min":0,"x_max":486,"ha":486,"o":"m 303 658 q 303 685 332 685 q 344 685 368 677 q 422 660 422 657 l 419 232 q 419 145 379 70 q 336 -10 278 -10 q 204 -10 140 33 q 61 86 61 170 l 57 323 l 82 666 q 82 672 101 672 q 115 671 118 671 q 153 662 159 660 q 181 652 181 627 l 164 240 q 164 176 169 147 q 178 97 202 94 q 248 88 277 152 q 303 209 303 279 z"},"o":{"x_min":0,"x_max":336,"ha":336,"o":"m 120 9 q 75 27 54 66 q 33 105 33 159 q 33 172 33 181 q 33 190 37 212 q 39 249 41 272 q 49 351 105 436 q 111 446 123 446 q 130 446 152 437 q 174 428 186 428 q 243 428 272 362 q 297 305 297 217 q 297 127 274 71 q 246 3 188 -12 q 178 -14 175 -14 q 167 -14 160 -10 q 153 -6 146 -2 z m 164 358 q 149 325 134 292 q 120 258 120 209 q 120 194 117 165 q 114 136 114 123 q 114 98 122 80 q 129 63 149 52 q 165 43 184 94 q 198 133 207 189 q 210 207 210 227 q 210 275 197 320 q 184 365 172 365 q 167 365 164 358 z"},"N":{"x_min":0,"x_max":570,"ha":570,"o":"m 374 23 l 188 364 l 189 -62 q 189 -73 180 -80 q 171 -87 159 -87 q 156 -87 153 -87 q 149 -85 148 -85 q 122 -74 97 -64 q 76 -52 76 -27 l 78 668 q 78 680 88 686 q 99 691 116 691 q 121 691 126 691 q 133 689 144 688 q 154 686 173 684 q 190 680 196 664 l 384 224 l 383 726 q 383 739 393 744 q 403 750 419 750 q 436 750 451 745 q 466 740 485 734 q 494 728 494 702 l 494 9 q 494 -4 482 -10 q 469 -16 452 -16 q 447 -16 442 -16 q 435 -14 432 -14 q 409 -10 396 -2 q 383 5 374 23 z"},"G":{"x_min":0,"x_max":520,"ha":520,"o":"m 350 184 q 353 193 356 202 q 360 211 360 218 q 360 226 352 233 q 345 240 332 240 q 325 240 309 237 q 293 234 283 234 q 278 234 274 234 q 266 235 258 240 q 239 252 224 268 q 205 288 205 299 q 205 307 215 308 l 391 337 q 399 338 406 340 q 414 341 423 341 q 442 341 457 329 q 467 321 472 306 q 477 292 477 278 q 477 249 459 195 q 450 169 441 143 q 428 103 389 56 q 336 -7 283 -7 q 276 -6 272 -6 q 217 0 181 17 q 134 39 107 81 q 45 179 45 308 q 45 393 74 476 q 109 576 157 642 q 213 719 273 727 q 286 729 308 716 q 330 703 350 692 q 370 682 391 673 q 415 660 423 639 q 431 622 440 606 q 447 586 447 529 q 447 476 440 458 q 433 441 403 427 q 396 423 387 423 q 377 423 368 427 q 358 431 345 445 q 332 459 328 472 q 323 485 323 503 q 323 514 330 560 q 334 586 334 599 q 334 614 330 632 q 327 651 311 651 q 271 651 221 562 q 164 461 164 353 q 164 220 172 167 q 188 59 241 41 q 253 38 286 73 q 327 118 350 184 z"},"q":{"x_min":0,"x_max":340,"ha":340,"o":"m 288 -212 q 280 -235 270 -235 q 241 -235 221 -225 q 201 -215 201 -193 l 200 13 q 180 5 171 2 q 162 -1 151 -1 q 133 -1 103 16 q 69 37 56 60 q 39 89 39 144 l 40 216 q 40 287 78 363 q 116 439 149 439 q 159 439 172 435 q 202 426 214 426 q 222 426 230 428 q 233 429 245 432 l 292 410 q 292 332 289 266 q 280 69 280 36 q 280 -18 282 -60 q 288 -187 288 -212 z m 150 59 q 185 92 197 115 q 206 133 206 162 q 206 173 206 184 q 205 194 205 203 l 205 292 q 205 304 208 325 q 210 346 210 350 q 210 376 193 379 q 178 382 156 338 q 135 295 129 254 l 112 152 q 111 146 111 133 q 111 104 118 79 q 126 54 139 54 q 143 54 150 59 z"},"d":{"x_min":0,"x_max":388,"ha":388,"o":"m 169 426 q 190 424 212 422 q 233 419 248 409 l 254 678 q 256 685 256 688 q 258 696 275 698 q 300 698 318 688 q 336 678 336 657 q 336 588 334 534 q 328 371 328 338 l 328 -2 q 321 -20 320 -22 q 314 -32 305 -32 q 299 -32 292 -28 q 277 -20 264 -15 q 252 -10 249 2 l 233 70 q 218 43 190 17 q 166 -5 150 -5 q 146 -5 140 -3 q 84 21 59 62 q 38 97 38 145 q 38 181 52 230 q 61 261 71 292 q 78 325 116 376 q 153 428 169 426 z m 234 361 q 223 367 215 367 q 196 367 180 337 q 175 328 146 230 q 137 200 132 170 q 126 140 126 113 q 126 66 148 66 q 166 66 195 114 q 224 162 236 209 q 240 224 242 246 q 244 267 244 288 q 244 316 241 338 q 238 359 234 361 z"},"1":{"x_min":0,"x_max":257,"ha":257,"o":"m 82 59 l 86 523 l 54 503 q 46 496 40 496 q 36 496 28 504 q 19 513 19 522 q 19 533 30 547 q 42 561 54 575 l 134 687 l 200 649 l 199 2 q 199 -10 180 -10 q 173 -10 169 -9 q 139 -1 109 6 q 82 19 82 59 z"},"5":{"x_min":0,"x_max":434,"ha":434,"o":"m 364 674 l 381 623 q 386 605 392 588 q 392 581 385 574 q 378 568 370 567 l 183 540 l 137 422 l 232 395 q 299 376 344 330 q 389 283 389 226 q 389 148 323 86 q 266 32 168 -4 l 106 -27 l 35 35 q 30 40 30 46 q 30 55 38 65 q 46 75 56 79 q 60 81 72 79 q 83 77 87 79 l 155 116 q 197 139 232 180 q 268 222 268 252 q 268 258 267 261 q 261 283 202 304 q 142 324 95 324 q 67 324 58 314 l 12 364 l 112 586 l 89 644 z"}}}
